# MagicaVoxel @ Ephtracy

# material
mtllib bush2.mtl
usemtl palette

# normals
vn -1 0 0
vn 1 0 0
vn 0 0 1
vn 0 0 -1
vn 0 -1 0
vn 0 1 0

# texcoords
vt 0.490234 0.5

# verts
v -1.5 0 1.5
v -1.5 0 -0.5
v -1.5 1 1.5
v -1.5 1 0.5
v -1.5 2 0.5
v -1.5 2 -0.5
v -0.5 0 -0.5
v -0.5 0 -1.5
v -0.5 1 -0.5
v -0.5 1 -1.5
v 0.5 0 0.5
v 0.5 0 -1.5
v 0.5 1 0.5
v 0.5 1 -0.5
v 0.5 1 -1.5
v 0.5 2 0.5
v 0.5 2 -0.5
v 1.5 0 1.5
v 1.5 0 0.5
v 1.5 1 1.5
v 1.5 1 0.5
v -1.5 0 1.5
v -1.5 1 1.5
v 1.5 0 1.5
v 1.5 1 1.5
v -1.5 1 0.5
v -1.5 2 0.5
v 0.5 1 0.5
v 0.5 2 0.5
v 0.5 0 0.5
v 0.5 1 0.5
v 1.5 0 0.5
v 1.5 1 0.5
v -1.5 0 -0.5
v -1.5 2 -0.5
v -0.5 0 -0.5
v -0.5 1 -0.5
v 0.5 1 -0.5
v 0.5 2 -0.5
v -0.5 0 -1.5
v -0.5 1 -1.5
v 0.5 0 -1.5
v 0.5 1 -1.5
v -1.5 0 1.5
v 1.5 0 1.5
v 0.5 0 0.5
v 1.5 0 0.5
v -1.5 0 -0.5
v -0.5 0 -0.5
v -0.5 0 -1.5
v 0.5 0 -1.5
v -1.5 1 1.5
v 1.5 1 1.5
v -1.5 1 0.5
v 0.5 1 0.5
v 1.5 1 0.5
v -0.5 1 -0.5
v 0.5 1 -0.5
v -0.5 1 -1.5
v 0.5 1 -1.5
v -1.5 2 0.5
v 0.5 2 0.5
v -1.5 2 -0.5
v 0.5 2 -0.5

# faces
f 3/1/1 2/1/1 1/1/1
f 4/1/1 2/1/1 3/1/1
f 5/1/1 2/1/1 4/1/1
f 6/1/1 2/1/1 5/1/1
f 9/1/1 8/1/1 7/1/1
f 10/1/1 8/1/1 9/1/1
f 11/1/2 12/1/2 13/1/2
f 13/1/2 12/1/2 14/1/2
f 14/1/2 12/1/2 15/1/2
f 13/1/2 14/1/2 16/1/2
f 16/1/2 14/1/2 17/1/2
f 18/1/2 19/1/2 20/1/2
f 20/1/2 19/1/2 21/1/2
f 24/1/3 23/1/3 22/1/3
f 25/1/3 23/1/3 24/1/3
f 28/1/3 27/1/3 26/1/3
f 29/1/3 27/1/3 28/1/3
f 30/1/4 31/1/4 32/1/4
f 32/1/4 31/1/4 33/1/4
f 34/1/4 35/1/4 36/1/4
f 36/1/4 35/1/4 37/1/4
f 37/1/4 35/1/4 38/1/4
f 38/1/4 35/1/4 39/1/4
f 40/1/4 41/1/4 42/1/4
f 42/1/4 41/1/4 43/1/4
f 46/1/5 45/1/5 44/1/5
f 47/1/5 45/1/5 46/1/5
f 48/1/5 46/1/5 44/1/5
f 49/1/5 46/1/5 48/1/5
f 50/1/5 46/1/5 49/1/5
f 51/1/5 46/1/5 50/1/5
f 52/1/6 53/1/6 54/1/6
f 54/1/6 53/1/6 55/1/6
f 55/1/6 53/1/6 56/1/6
f 57/1/6 58/1/6 59/1/6
f 59/1/6 58/1/6 60/1/6
f 61/1/6 62/1/6 63/1/6
f 63/1/6 62/1/6 64/1/6
