# MagicaVoxel @ Ephtracy

# material
mtllib tree.mtl
usemtl palette

# normals
vn -1 0 0
vn 1 0 0
vn 0 0 1
vn 0 0 -1
vn 0 -1 0
vn 0 1 0

# texcoords
vt 0.373047 0.5
vt 0.490234 0.5

# verts
v -4 5 0.5
v -4 5 -0.5
v -4 6 0.5
v -4 6 -0.5
v -3 4 0.5
v -3 4 -0.5
v -3 5 1.5
v -3 5 0.5
v -3 5 -0.5
v -3 5 -1.5
v -3 6 1.5
v -3 6 0.5
v -3 6 -0.5
v -3 6 -1.5
v -3 6 -2.5
v -3 7 0.5
v -3 7 -0.5
v -3 7 -1.5
v -3 7 -2.5
v -3 8 0.5
v -3 8 -0.5
v -3 9 0.5
v -3 9 -0.5
v -2 6 -0.5
v -2 6 -1.5
v -2 6 -2.5
v -2 6 -3.5
v -2 7 0.5
v -2 7 -0.5
v -2 7 -1.5
v -2 7 -2.5
v -2 7 -3.5
v -2 8 1.5
v -2 8 0.5
v -2 8 -0.5
v -2 8 -1.5
v -2 8 -2.5
v -2 9 1.5
v -2 9 0.5
v -2 9 -0.5
v -2 9 -1.5
v -2 10 0.5
v -2 10 -0.5
v 0 0 0.5
v 0 0 -0.5
v 0 5 0.5
v 0 5 -0.5
v 0 5 -1.5
v 0 6 2.5
v 0 6 1.5
v 0 6 -0.5
v 0 7 2.5
v 0 7 1.5
v 0 7 -0.5
v 0 7 -1.5
v 0 9 2.5
v 0 9 0.5
v 0 10 2.5
v 0 10 0.5
v 1 4 -0.5
v 1 4 -1.5
v 1 5 2.5
v 1 5 1.5
v 1 5 -0.5
v 1 5 -1.5
v 1 5 -2.5
v 1 6 3.5
v 1 6 2.5
v 1 6 1.5
v 1 6 0.5
v 1 6 -0.5
v 1 7 3.5
v 1 7 2.5
v 1 7 1.5
v 1 7 0.5
v 1 7 -0.5
v 1 7 -1.5
v 1 7 -2.5
v 1 8 0.5
v 1 8 -1.5
v 1 9 3.5
v 1 9 2.5
v 1 9 1.5
v 1 9 0.5
v 1 9 -0.5
v 1 10 3.5
v 1 10 2.5
v 1 10 0.5
v 1 10 -0.5
v 1 11 2.5
v 1 11 0.5
v -2 4 0.5
v -2 4 -0.5
v -2 5 1.5
v -2 5 0.5
v -2 5 -0.5
v -2 5 -1.5
v -2 6 1.5
v -2 6 0.5
v -2 6 -0.5
v -2 6 -1.5
v -1 6 0.5
v -1 6 -0.5
v -1 6 -3.5
v -1 7 0.5
v -1 7 -0.5
v -1 7 -2.5
v -1 7 -3.5
v -1 8 1.5
v -1 8 0.5
v -1 8 -1.5
v -1 8 -2.5
v -1 9 1.5
v -1 9 0.5
v -1 9 -0.5
v -1 9 -1.5
v -1 10 0.5
v -1 10 -0.5
v 0 7 0.5
v 0 7 -0.5
v 0 9 0.5
v 0 9 -0.5
v 1 0 0.5
v 1 0 -0.5
v 1 4 -0.5
v 1 5 0.5
v 1 5 -0.5
v 2 5 2.5
v 2 5 1.5
v 2 6 3.5
v 2 6 2.5
v 2 6 1.5
v 2 6 0.5
v 2 7 3.5
v 2 7 2.5
v 2 7 1.5
v 2 7 0.5
v 2 9 3.5
v 2 9 2.5
v 2 9 1.5
v 2 9 0.5
v 2 9 -0.5
v 2 10 3.5
v 2 10 2.5
v 2 10 0.5
v 2 10 -0.5
v 2 11 2.5
v 2 11 0.5
v 3 4 -0.5
v 3 4 -1.5
v 3 5 0.5
v 3 5 -0.5
v 3 5 -1.5
v 3 5 -2.5
v 3 6 2.5
v 3 6 1.5
v 3 7 2.5
v 3 7 1.5
v 3 7 -0.5
v 3 7 -1.5
v 3 7 -2.5
v 3 8 0.5
v 3 8 -1.5
v 3 9 2.5
v 3 9 0.5
v 3 10 2.5
v 3 10 0.5
v 4 5 -0.5
v 4 5 -1.5
v 4 7 -0.5
v 4 7 -1.5
v 1 6 3.5
v 1 7 3.5
v 1 9 3.5
v 1 10 3.5
v 2 6 3.5
v 2 7 3.5
v 2 9 3.5
v 2 10 3.5
v 0 6 2.5
v 0 7 2.5
v 0 9 2.5
v 0 10 2.5
v 1 5 2.5
v 1 6 2.5
v 1 7 2.5
v 1 9 2.5
v 1 10 2.5
v 1 11 2.5
v 2 5 2.5
v 2 6 2.5
v 2 7 2.5
v 2 9 2.5
v 2 10 2.5
v 2 11 2.5
v 3 6 2.5
v 3 7 2.5
v 3 9 2.5
v 3 10 2.5
v -3 5 1.5
v -3 6 1.5
v -2 5 1.5
v -2 6 1.5
v -2 8 1.5
v -2 9 1.5
v -1 8 1.5
v -1 9 1.5
v -4 5 0.5
v -4 6 0.5
v -3 4 0.5
v -3 5 0.5
v -3 6 0.5
v -3 7 0.5
v -3 8 0.5
v -3 9 0.5
v -2 4 0.5
v -2 5 0.5
v -2 6 0.5
v -2 7 0.5
v -2 8 0.5
v -2 9 0.5
v -2 10 0.5
v -1 6 0.5
v -1 7 0.5
v -1 8 0.5
v -1 9 0.5
v -1 10 0.5
v 0 0 0.5
v 0 5 0.5
v 0 7 0.5
v 0 9 0.5
v 1 0 0.5
v 1 5 0.5
v 1 6 0.5
v 1 7 0.5
v 1 8 0.5
v 2 5 0.5
v 2 6 0.5
v 2 7 0.5
v 3 5 0.5
v 3 8 0.5
v 0 6 -0.5
v 0 7 -0.5
v 1 4 -0.5
v 1 5 -0.5
v 1 6 -0.5
v 1 7 -0.5
v 2 5 -0.5
v 3 4 -0.5
v 3 5 -0.5
v 3 7 -0.5
v 4 5 -0.5
v 4 7 -0.5
v -3 6 -1.5
v -3 7 -1.5
v -2 6 -1.5
v -2 7 -1.5
v 0 6 1.5
v 0 7 1.5
v 1 5 1.5
v 1 6 1.5
v 1 7 1.5
v 1 9 1.5
v 2 5 1.5
v 2 6 1.5
v 2 7 1.5
v 2 9 1.5
v 3 6 1.5
v 3 7 1.5
v 0 9 0.5
v 0 10 0.5
v 1 9 0.5
v 1 10 0.5
v 1 11 0.5
v 2 9 0.5
v 2 10 0.5
v 2 11 0.5
v 3 9 0.5
v 3 10 0.5
v -4 5 -0.5
v -4 6 -0.5
v -3 4 -0.5
v -3 5 -0.5
v -3 6 -0.5
v -3 7 -0.5
v -3 8 -0.5
v -3 9 -0.5
v -2 4 -0.5
v -2 5 -0.5
v -2 6 -0.5
v -2 7 -0.5
v -2 8 -0.5
v -2 9 -0.5
v -2 10 -0.5
v -1 6 -0.5
v -1 7 -0.5
v -1 9 -0.5
v -1 10 -0.5
v 0 0 -0.5
v 0 5 -0.5
v 0 6 -0.5
v 0 7 -0.5
v 0 9 -0.5
v 1 0 -0.5
v 1 4 -0.5
v 1 5 -0.5
v 1 9 -0.5
v 1 10 -0.5
v 2 9 -0.5
v 2 10 -0.5
v -3 5 -1.5
v -3 6 -1.5
v -2 5 -1.5
v -2 6 -1.5
v -2 8 -1.5
v -2 9 -1.5
v -1 8 -1.5
v -1 9 -1.5
v 0 5 -1.5
v 0 7 -1.5
v 1 4 -1.5
v 1 5 -1.5
v 1 7 -1.5
v 1 8 -1.5
v 3 4 -1.5
v 3 5 -1.5
v 3 7 -1.5
v 3 8 -1.5
v 4 5 -1.5
v 4 7 -1.5
v -3 6 -2.5
v -3 7 -2.5
v -2 6 -2.5
v -2 7 -2.5
v -2 8 -2.5
v -1 7 -2.5
v -1 8 -2.5
v 1 5 -2.5
v 1 7 -2.5
v 3 5 -2.5
v 3 7 -2.5
v -2 6 -3.5
v -2 7 -3.5
v -1 6 -3.5
v -1 7 -3.5
v 0 0 0.5
v 1 0 0.5
v 0 0 -0.5
v 1 0 -0.5
v -3 4 0.5
v -2 4 0.5
v -3 4 -0.5
v -2 4 -0.5
v 1 4 -0.5
v 3 4 -0.5
v 1 4 -1.5
v 3 4 -1.5
v 1 5 2.5
v 2 5 2.5
v -3 5 1.5
v -2 5 1.5
v 1 5 1.5
v 2 5 1.5
v -4 5 0.5
v -3 5 0.5
v -2 5 0.5
v 0 5 0.5
v 1 5 0.5
v 2 5 0.5
v 3 5 0.5
v -4 5 -0.5
v -3 5 -0.5
v -2 5 -0.5
v 0 5 -0.5
v 1 5 -0.5
v 2 5 -0.5
v 3 5 -0.5
v 4 5 -0.5
v -3 5 -1.5
v -2 5 -1.5
v 0 5 -1.5
v 1 5 -1.5
v 3 5 -1.5
v 4 5 -1.5
v 1 5 -2.5
v 3 5 -2.5
v 1 6 3.5
v 2 6 3.5
v 0 6 2.5
v 1 6 2.5
v 2 6 2.5
v 3 6 2.5
v 0 6 1.5
v 1 6 1.5
v 2 6 1.5
v 3 6 1.5
v 1 6 0.5
v 2 6 0.5
v -2 6 -0.5
v -1 6 -0.5
v -3 6 -1.5
v -2 6 -1.5
v -3 6 -2.5
v -2 6 -2.5
v -2 6 -3.5
v -1 6 -3.5
v -1 7 0.5
v 0 7 0.5
v -1 7 -0.5
v 0 7 -0.5
v -2 8 1.5
v -1 8 1.5
v -3 8 0.5
v -2 8 0.5
v -1 8 0.5
v -3 8 -0.5
v -2 8 -0.5
v 1 9 3.5
v 2 9 3.5
v 0 9 2.5
v 1 9 2.5
v 2 9 2.5
v 3 9 2.5
v 1 9 1.5
v 2 9 1.5
v 0 9 0.5
v 1 9 0.5
v 2 9 0.5
v 3 9 0.5
v 1 9 -0.5
v 2 9 -0.5
v -3 6 1.5
v -2 6 1.5
v -4 6 0.5
v -3 6 0.5
v -2 6 0.5
v -1 6 0.5
v 1 6 0.5
v -4 6 -0.5
v -3 6 -0.5
v -2 6 -0.5
v -1 6 -0.5
v 0 6 -0.5
v 1 6 -0.5
v -3 6 -1.5
v -2 6 -1.5
v 1 7 3.5
v 2 7 3.5
v 0 7 2.5
v 1 7 2.5
v 2 7 2.5
v 3 7 2.5
v 0 7 1.5
v 1 7 1.5
v 2 7 1.5
v 3 7 1.5
v -3 7 0.5
v -2 7 0.5
v 1 7 0.5
v 2 7 0.5
v -3 7 -0.5
v -2 7 -0.5
v 0 7 -0.5
v 1 7 -0.5
v 3 7 -0.5
v 4 7 -0.5
v -3 7 -1.5
v -2 7 -1.5
v 0 7 -1.5
v 1 7 -1.5
v 3 7 -1.5
v 4 7 -1.5
v -3 7 -2.5
v -2 7 -2.5
v -1 7 -2.5
v 1 7 -2.5
v 3 7 -2.5
v -2 7 -3.5
v -1 7 -3.5
v 1 8 0.5
v 3 8 0.5
v -2 8 -1.5
v -1 8 -1.5
v 1 8 -1.5
v 3 8 -1.5
v -2 8 -2.5
v -1 8 -2.5
v -2 9 1.5
v -1 9 1.5
v -3 9 0.5
v -2 9 0.5
v -1 9 0.5
v 0 9 0.5
v -3 9 -0.5
v -2 9 -0.5
v -1 9 -0.5
v 0 9 -0.5
v -2 9 -1.5
v -1 9 -1.5
v 1 10 3.5
v 2 10 3.5
v 0 10 2.5
v 1 10 2.5
v 2 10 2.5
v 3 10 2.5
v -2 10 0.5
v -1 10 0.5
v 0 10 0.5
v 1 10 0.5
v 2 10 0.5
v 3 10 0.5
v -2 10 -0.5
v -1 10 -0.5
v 1 10 -0.5
v 2 10 -0.5
v 1 11 2.5
v 2 11 2.5
v 1 11 0.5
v 2 11 0.5

# faces
f 3/2/1 2/2/1 1/2/1
f 4/2/1 2/2/1 3/2/1
f 8/2/1 6/2/1 5/2/1
f 9/2/1 6/2/1 8/2/1
f 11/2/1 8/2/1 7/2/1
f 12/2/1 8/2/1 11/2/1
f 13/2/1 10/2/1 9/2/1
f 14/2/1 10/2/1 13/2/1
f 16/2/1 13/2/1 12/2/1
f 17/2/1 13/2/1 16/2/1
f 18/2/1 15/2/1 14/2/1
f 19/2/1 15/2/1 18/2/1
f 22/2/1 21/2/1 20/2/1
f 23/2/1 21/2/1 22/2/1
f 29/2/1 25/2/1 24/2/1
f 30/2/1 25/2/1 29/2/1
f 31/2/1 27/2/1 26/2/1
f 32/2/1 27/2/1 31/2/1
f 34/1/1 29/1/1 28/1/1
f 35/2/1 30/2/1 29/2/1
f 35/2/1 31/2/1 30/2/1
f 35/1/1 29/1/1 34/1/1
f 36/2/1 31/2/1 35/2/1
f 37/2/1 31/2/1 36/2/1
f 38/2/1 34/2/1 33/2/1
f 39/2/1 34/2/1 38/2/1
f 40/2/1 36/2/1 35/2/1
f 41/2/1 36/2/1 40/2/1
f 42/2/1 40/2/1 39/2/1
f 43/2/1 40/2/1 42/2/1
f 46/1/1 45/1/1 44/1/1
f 47/1/1 45/1/1 46/1/1
f 51/2/1 48/2/1 47/2/1
f 52/2/1 50/2/1 49/2/1
f 53/2/1 50/2/1 52/2/1
f 54/2/1 48/2/1 51/2/1
f 55/2/1 48/2/1 54/2/1
f 58/2/1 57/2/1 56/2/1
f 59/2/1 57/2/1 58/2/1
f 64/2/1 61/2/1 60/2/1
f 65/2/1 61/2/1 64/2/1
f 68/2/1 63/2/1 62/2/1
f 69/2/1 63/2/1 68/2/1
f 72/2/1 68/2/1 67/2/1
f 73/2/1 68/2/1 72/2/1
f 74/1/1 71/1/1 70/1/1
f 74/1/1 70/1/1 69/1/1
f 75/1/1 71/1/1 74/1/1
f 76/1/1 71/1/1 75/1/1
f 77/2/1 66/2/1 65/2/1
f 78/2/1 66/2/1 77/2/1
f 79/2/1 76/2/1 75/2/1
f 79/2/1 77/2/1 76/2/1
f 80/2/1 77/2/1 79/2/1
f 82/1/1 74/1/1 73/1/1
f 83/1/1 74/1/1 82/1/1
f 86/2/1 82/2/1 81/2/1
f 87/2/1 82/2/1 86/2/1
f 88/2/1 85/2/1 84/2/1
f 89/2/1 85/2/1 88/2/1
f 90/2/1 88/2/1 87/2/1
f 91/2/1 88/2/1 90/2/1
f 92/2/2 93/2/2 95/2/2
f 95/2/2 93/2/2 96/2/2
f 94/2/2 95/2/2 98/2/2
f 98/2/2 95/2/2 99/2/2
f 96/2/2 97/2/2 100/2/2
f 100/2/2 97/2/2 101/2/2
f 102/1/2 103/1/2 105/1/2
f 103/2/2 104/2/2 106/2/2
f 105/1/2 103/1/2 106/1/2
f 106/2/2 104/2/2 107/2/2
f 107/2/2 104/2/2 108/2/2
f 106/2/2 107/2/2 111/2/2
f 111/2/2 107/2/2 112/2/2
f 109/2/2 110/2/2 113/2/2
f 113/2/2 110/2/2 114/2/2
f 106/2/2 111/2/2 115/2/2
f 115/2/2 111/2/2 116/2/2
f 114/2/2 115/2/2 117/2/2
f 117/2/2 115/2/2 118/2/2
f 119/2/2 120/2/2 121/2/2
f 121/2/2 120/2/2 122/2/2
f 123/1/2 124/1/2 125/1/2
f 123/1/2 125/1/2 126/1/2
f 126/1/2 125/1/2 127/1/2
f 128/2/2 129/2/2 131/2/2
f 131/2/2 129/2/2 132/2/2
f 130/2/2 131/2/2 134/2/2
f 134/2/2 131/2/2 135/2/2
f 132/1/2 133/1/2 136/1/2
f 136/1/2 133/1/2 137/1/2
f 135/1/2 136/1/2 139/1/2
f 139/1/2 136/1/2 140/1/2
f 138/2/2 139/2/2 143/2/2
f 143/2/2 139/2/2 144/2/2
f 141/2/2 142/2/2 145/2/2
f 145/2/2 142/2/2 146/2/2
f 144/2/2 145/2/2 147/2/2
f 147/2/2 145/2/2 148/2/2
f 149/2/2 150/2/2 152/2/2
f 152/2/2 150/2/2 153/2/2
f 155/2/2 156/2/2 157/2/2
f 157/2/2 156/2/2 158/2/2
f 151/2/2 152/2/2 159/2/2
f 153/2/2 154/2/2 160/2/2
f 160/2/2 154/2/2 161/2/2
f 151/2/2 159/2/2 162/2/2
f 159/2/2 160/2/2 162/2/2
f 162/2/2 160/2/2 163/2/2
f 164/2/2 165/2/2 166/2/2
f 166/2/2 165/2/2 167/2/2
f 168/2/2 169/2/2 170/2/2
f 170/2/2 169/2/2 171/2/2
f 176/2/3 173/2/3 172/2/3
f 177/2/3 173/2/3 176/2/3
f 178/2/3 175/2/3 174/2/3
f 179/2/3 175/2/3 178/2/3
f 185/2/3 181/2/3 180/2/3
f 186/2/3 181/2/3 185/2/3
f 187/2/3 183/2/3 182/2/3
f 188/2/3 183/2/3 187/2/3
f 190/2/3 185/2/3 184/2/3
f 191/2/3 185/2/3 190/2/3
f 192/1/3 187/1/3 186/1/3
f 193/1/3 187/1/3 192/1/3
f 194/2/3 189/2/3 188/2/3
f 195/2/3 189/2/3 194/2/3
f 196/2/3 192/2/3 191/2/3
f 197/2/3 192/2/3 196/2/3
f 198/2/3 194/2/3 193/2/3
f 199/2/3 194/2/3 198/2/3
f 202/2/3 201/2/3 200/2/3
f 203/2/3 201/2/3 202/2/3
f 206/2/3 205/2/3 204/2/3
f 207/2/3 205/2/3 206/2/3
f 211/2/3 209/2/3 208/2/3
f 212/2/3 209/2/3 211/2/3
f 216/2/3 211/2/3 210/2/3
f 217/2/3 211/2/3 216/2/3
f 218/2/3 213/2/3 212/2/3
f 219/2/3 213/2/3 218/2/3
f 220/2/3 215/2/3 214/2/3
f 221/2/3 215/2/3 220/2/3
f 223/1/3 219/1/3 218/1/3
f 223/1/3 220/1/3 219/1/3
f 223/1/3 218/1/3 217/1/3
f 224/1/3 220/1/3 223/1/3
f 225/1/3 220/1/3 224/1/3
f 226/2/3 222/2/3 221/2/3
f 227/2/3 222/2/3 226/2/3
f 229/1/3 223/1/3 217/1/3
f 230/2/3 225/2/3 224/2/3
f 230/2/3 226/2/3 225/2/3
f 231/2/3 226/2/3 230/2/3
f 232/1/3 229/1/3 228/1/3
f 233/1/3 223/1/3 229/1/3
f 233/1/3 229/1/3 232/1/3
f 234/1/3 223/1/3 233/1/3
f 237/1/3 234/1/3 233/1/3
f 238/1/3 234/1/3 237/1/3
f 239/2/3 236/2/3 235/2/3
f 240/2/3 238/2/3 237/2/3
f 240/2/3 239/2/3 238/2/3
f 241/2/3 236/2/3 239/2/3
f 241/2/3 239/2/3 240/2/3
f 246/2/3 243/2/3 242/2/3
f 247/2/3 243/2/3 246/2/3
f 248/2/3 245/2/3 244/2/3
f 249/2/3 248/2/3 244/2/3
f 250/2/3 248/2/3 249/2/3
f 252/2/3 251/2/3 250/2/3
f 253/2/3 251/2/3 252/2/3
f 256/2/3 255/2/3 254/2/3
f 257/2/3 255/2/3 256/2/3
f 258/2/4 259/2/4 261/2/4
f 261/2/4 259/2/4 262/2/4
f 260/2/4 261/2/4 264/2/4
f 264/2/4 261/2/4 265/2/4
f 262/1/4 263/1/4 266/1/4
f 266/1/4 263/1/4 267/1/4
f 265/2/4 266/2/4 268/2/4
f 268/2/4 266/2/4 269/2/4
f 270/2/4 271/2/4 272/2/4
f 272/2/4 271/2/4 273/2/4
f 273/2/4 274/2/4 276/2/4
f 276/2/4 274/2/4 277/2/4
f 275/2/4 276/2/4 278/2/4
f 278/2/4 276/2/4 279/2/4
f 280/2/4 281/2/4 283/2/4
f 283/2/4 281/2/4 284/2/4
f 282/2/4 283/2/4 288/2/4
f 288/2/4 283/2/4 289/2/4
f 284/2/4 285/2/4 290/2/4
f 290/2/4 285/2/4 291/2/4
f 286/2/4 287/2/4 292/2/4
f 292/2/4 287/2/4 293/2/4
f 289/1/4 290/1/4 295/1/4
f 293/2/4 294/2/4 297/2/4
f 297/2/4 294/2/4 298/2/4
f 289/1/4 295/1/4 300/1/4
f 300/1/4 295/1/4 301/1/4
f 296/2/4 297/2/4 302/2/4
f 302/2/4 297/2/4 303/2/4
f 299/1/4 300/1/4 304/1/4
f 304/1/4 300/1/4 305/1/4
f 305/1/4 300/1/4 306/1/4
f 307/2/4 308/2/4 309/2/4
f 309/2/4 308/2/4 310/2/4
f 311/2/4 312/2/4 313/2/4
f 313/2/4 312/2/4 314/2/4
f 315/2/4 316/2/4 317/2/4
f 317/2/4 316/2/4 318/2/4
f 319/2/4 320/2/4 322/2/4
f 322/2/4 320/2/4 323/2/4
f 321/2/4 322/2/4 325/2/4
f 325/2/4 322/2/4 326/2/4
f 323/2/4 324/2/4 327/2/4
f 327/2/4 324/2/4 328/2/4
f 326/2/4 327/2/4 329/2/4
f 329/2/4 327/2/4 330/2/4
f 331/2/4 332/2/4 333/2/4
f 333/2/4 332/2/4 334/2/4
f 334/2/4 335/2/4 336/2/4
f 336/2/4 335/2/4 337/2/4
f 338/2/4 339/2/4 340/2/4
f 340/2/4 339/2/4 341/2/4
f 342/2/4 343/2/4 344/2/4
f 344/2/4 343/2/4 345/2/4
f 348/1/5 347/1/5 346/1/5
f 349/1/5 347/1/5 348/1/5
f 352/2/5 351/2/5 350/2/5
f 353/2/5 351/2/5 352/2/5
f 356/2/5 355/2/5 354/2/5
f 357/2/5 355/2/5 356/2/5
f 362/2/5 359/2/5 358/2/5
f 363/2/5 359/2/5 362/2/5
f 365/2/5 361/2/5 360/2/5
f 366/2/5 361/2/5 365/2/5
f 371/2/5 365/2/5 364/2/5
f 372/2/5 365/2/5 371/2/5
f 373/1/5 367/1/5 366/1/5
f 374/1/5 367/1/5 373/1/5
f 375/1/5 369/1/5 368/1/5
f 376/2/5 370/2/5 369/2/5
f 376/1/5 369/1/5 375/1/5
f 377/2/5 370/2/5 376/2/5
f 379/2/5 373/2/5 372/2/5
f 380/2/5 373/2/5 379/2/5
f 381/2/5 375/2/5 374/2/5
f 382/2/5 375/2/5 381/2/5
f 383/2/5 378/2/5 377/2/5
f 384/2/5 378/2/5 383/2/5
f 385/2/5 383/2/5 382/2/5
f 386/2/5 383/2/5 385/2/5
f 390/2/5 388/2/5 387/2/5
f 391/2/5 388/2/5 390/2/5
f 393/2/5 390/2/5 389/2/5
f 394/2/5 390/2/5 393/2/5
f 395/2/5 392/2/5 391/2/5
f 396/2/5 392/2/5 395/2/5
f 397/1/5 395/1/5 394/1/5
f 398/1/5 395/1/5 397/1/5
f 402/2/5 400/2/5 399/2/5
f 403/2/5 402/2/5 401/2/5
f 404/2/5 400/2/5 402/2/5
f 404/2/5 402/2/5 403/2/5
f 405/2/5 400/2/5 404/2/5
f 406/2/5 400/2/5 405/2/5
f 409/2/5 408/2/5 407/2/5
f 410/2/5 408/2/5 409/2/5
f 414/2/5 412/2/5 411/2/5
f 415/2/5 412/2/5 414/2/5
f 416/2/5 414/2/5 413/2/5
f 417/2/5 414/2/5 416/2/5
f 421/2/5 419/2/5 418/2/5
f 422/2/5 419/2/5 421/2/5
f 424/2/5 421/2/5 420/2/5
f 425/2/5 423/2/5 422/2/5
f 426/2/5 424/2/5 420/2/5
f 426/2/5 425/2/5 424/2/5
f 427/2/5 425/2/5 426/2/5
f 428/2/5 423/2/5 425/2/5
f 428/2/5 425/2/5 427/2/5
f 429/2/5 423/2/5 428/2/5
f 430/2/5 428/2/5 427/2/5
f 431/2/5 428/2/5 430/2/5
f 432/2/6 433/2/6 435/2/6
f 435/2/6 433/2/6 436/2/6
f 434/2/6 435/2/6 439/2/6
f 439/2/6 435/2/6 440/2/6
f 437/1/6 438/1/6 442/1/6
f 442/1/6 438/1/6 443/1/6
f 443/1/6 438/1/6 444/1/6
f 440/2/6 441/2/6 445/2/6
f 445/2/6 441/2/6 446/2/6
f 447/2/6 448/2/6 450/2/6
f 450/2/6 448/2/6 451/2/6
f 449/2/6 450/2/6 453/2/6
f 453/2/6 450/2/6 454/2/6
f 451/2/6 452/2/6 455/2/6
f 455/2/6 452/2/6 456/2/6
f 454/1/6 455/1/6 459/1/6
f 459/1/6 455/1/6 460/1/6
f 457/2/6 458/2/6 461/2/6
f 461/2/6 458/2/6 462/2/6
f 463/2/6 464/2/6 469/2/6
f 469/2/6 464/2/6 470/2/6
f 465/2/6 466/2/6 471/2/6
f 471/2/6 466/2/6 472/2/6
f 467/2/6 468/2/6 473/2/6
f 473/2/6 468/2/6 474/2/6
f 470/2/6 471/2/6 476/2/6
f 476/2/6 471/2/6 477/2/6
f 474/2/6 475/2/6 478/2/6
f 478/2/6 475/2/6 479/2/6
f 480/2/6 481/2/6 484/2/6
f 484/2/6 481/2/6 485/2/6
f 482/2/6 483/2/6 486/2/6
f 486/2/6 483/2/6 487/2/6
f 488/2/6 489/2/6 491/2/6
f 491/2/6 489/2/6 492/2/6
f 490/2/6 491/2/6 494/2/6
f 494/2/6 491/2/6 495/2/6
f 492/2/6 493/2/6 496/2/6
f 496/2/6 493/2/6 497/2/6
f 495/2/6 496/2/6 498/2/6
f 498/2/6 496/2/6 499/2/6
f 500/2/6 501/2/6 503/2/6
f 503/2/6 501/2/6 504/2/6
f 502/2/6 503/2/6 508/2/6
f 508/2/6 503/2/6 509/2/6
f 504/2/6 505/2/6 510/2/6
f 510/2/6 505/2/6 511/2/6
f 506/2/6 507/2/6 512/2/6
f 512/2/6 507/2/6 513/2/6
f 509/2/6 510/2/6 514/2/6
f 514/2/6 510/2/6 515/2/6
f 516/2/6 517/2/6 518/2/6
f 518/2/6 517/2/6 519/2/6
