# MagicaVoxel @ Ephtracy

# material
mtllib building_tower_left.mtl
usemtl palette

# normals
vn -1 0 0
vn 1 0 0
vn 0 0 1
vn 0 0 -1
vn 0 -1 0
vn 0 1 0

# texcoords
vt 0.978516 0.5
vt 0.982422 0.5

# verts
v -2.5 0 5
v -2.5 0 3
v -2.5 0 -0
v -2.5 0 -5
v -2.5 1 -0
v -2.5 1 -1
v -2.5 2 4
v -2.5 2 3
v -2.5 2 -1
v -2.5 2 -4
v -2.5 7 4
v -2.5 7 -4
v -2.5 8 4
v -2.5 8 -4
v -2.5 10 5
v -2.5 10 4
v -2.5 10 -4
v -2.5 10 -5
v -1.5 8 3
v -1.5 8 1
v -1.5 9 3
v -1.5 9 1
v -0.5 3 5
v -0.5 3 4
v -0.5 3 -4
v -0.5 3 -5
v -0.5 6 5
v -0.5 6 4
v -0.5 6 -4
v -0.5 6 -5
v -0.5 9 5
v -0.5 9 4
v -0.5 9 -4
v -0.5 9 -5
v -0.5 10 5
v -0.5 10 4
v -0.5 10 -4
v -0.5 10 -5
v 1.5 0 3
v 1.5 0 -0
v 1.5 1 -0
v 1.5 1 -1
v 1.5 2 4
v 1.5 2 3
v 1.5 2 -1
v 1.5 2 -4
v 1.5 3 2
v 1.5 3 1
v 1.5 3 -1
v 1.5 3 -2
v 1.5 6 2
v 1.5 6 1
v 1.5 6 -1
v 1.5 6 -2
v 1.5 7 4
v 1.5 7 -4
v 1.5 8 4
v 1.5 8 -4
v 1.5 9 2
v 1.5 9 1
v 1.5 9 -1
v 1.5 9 -2
v 1.5 10 4
v 1.5 10 2
v 1.5 10 1
v 1.5 10 -1
v 1.5 10 -2
v 1.5 10 -4
v -1.5 3 5
v -1.5 3 4
v -1.5 3 -4
v -1.5 3 -5
v -1.5 6 5
v -1.5 6 4
v -1.5 6 -4
v -1.5 6 -5
v -1.5 9 5
v -1.5 9 4
v -1.5 9 -4
v -1.5 9 -5
v -1.5 10 5
v -1.5 10 4
v -1.5 10 -4
v -1.5 10 -5
v 0.5 8 3
v 0.5 8 1
v 0.5 9 3
v 0.5 9 1
v 2.5 0 5
v 2.5 0 -5
v 2.5 3 2
v 2.5 3 1
v 2.5 3 -1
v 2.5 3 -2
v 2.5 6 2
v 2.5 6 1
v 2.5 6 -1
v 2.5 6 -2
v 2.5 9 2
v 2.5 9 1
v 2.5 9 -1
v 2.5 9 -2
v 2.5 10 5
v 2.5 10 2
v 2.5 10 1
v 2.5 10 -1
v 2.5 10 -2
v 2.5 10 -5
v -2.5 0 5
v -2.5 10 5
v -1.5 3 5
v -1.5 6 5
v -1.5 9 5
v -1.5 10 5
v -0.5 3 5
v -0.5 6 5
v -0.5 9 5
v -0.5 10 5
v 2.5 0 5
v 2.5 10 5
v -1.5 8 3
v -1.5 9 3
v 0.5 8 3
v 0.5 9 3
v 1.5 3 1
v 1.5 6 1
v 1.5 9 1
v 1.5 10 1
v 2.5 3 1
v 2.5 6 1
v 2.5 9 1
v 2.5 10 1
v -2.5 0 -0
v -2.5 1 -0
v 1.5 0 -0
v 1.5 1 -0
v -2.5 1 -1
v -2.5 2 -1
v 1.5 1 -1
v 1.5 2 -1
v 1.5 3 -2
v 1.5 6 -2
v 1.5 9 -2
v 1.5 10 -2
v 2.5 3 -2
v 2.5 6 -2
v 2.5 9 -2
v 2.5 10 -2
v -2.5 2 -4
v -2.5 7 -4
v -2.5 8 -4
v -2.5 10 -4
v -1.5 3 -4
v -1.5 6 -4
v -1.5 9 -4
v -1.5 10 -4
v -0.5 3 -4
v -0.5 6 -4
v -0.5 9 -4
v -0.5 10 -4
v 1.5 2 -4
v 1.5 7 -4
v 1.5 8 -4
v 1.5 10 -4
v -2.5 2 4
v -2.5 7 4
v -2.5 8 4
v -2.5 10 4
v -1.5 3 4
v -1.5 6 4
v -1.5 9 4
v -1.5 10 4
v -0.5 3 4
v -0.5 6 4
v -0.5 9 4
v -0.5 10 4
v 1.5 2 4
v 1.5 7 4
v 1.5 8 4
v 1.5 10 4
v -2.5 0 3
v -2.5 2 3
v 1.5 0 3
v 1.5 2 3
v 1.5 3 2
v 1.5 6 2
v 1.5 9 2
v 1.5 10 2
v 2.5 3 2
v 2.5 6 2
v 2.5 9 2
v 2.5 10 2
v -1.5 8 1
v -1.5 9 1
v 0.5 8 1
v 0.5 9 1
v 1.5 3 -1
v 1.5 6 -1
v 1.5 9 -1
v 1.5 10 -1
v 2.5 3 -1
v 2.5 6 -1
v 2.5 9 -1
v 2.5 10 -1
v -2.5 0 -5
v -2.5 10 -5
v -1.5 3 -5
v -1.5 6 -5
v -1.5 9 -5
v -1.5 10 -5
v -0.5 3 -5
v -0.5 6 -5
v -0.5 9 -5
v -0.5 10 -5
v 2.5 0 -5
v 2.5 10 -5
v -2.5 0 5
v 2.5 0 5
v -2.5 0 3
v 1.5 0 3
v -2.5 0 -0
v 1.5 0 -0
v -2.5 0 -5
v 2.5 0 -5
v -1.5 6 5
v -0.5 6 5
v -1.5 6 4
v -0.5 6 4
v 1.5 6 2
v 2.5 6 2
v 1.5 6 1
v 2.5 6 1
v 1.5 6 -1
v 2.5 6 -1
v 1.5 6 -2
v 2.5 6 -2
v -1.5 6 -4
v -0.5 6 -4
v -1.5 6 -5
v -0.5 6 -5
v -2.5 7 4
v 1.5 7 4
v -2.5 7 -4
v 1.5 7 -4
v -2.5 1 -0
v 1.5 1 -0
v -2.5 1 -1
v 1.5 1 -1
v -2.5 2 4
v 1.5 2 4
v -2.5 2 3
v 1.5 2 3
v -2.5 2 -1
v 1.5 2 -1
v -2.5 2 -4
v 1.5 2 -4
v -1.5 3 5
v -0.5 3 5
v -1.5 3 4
v -0.5 3 4
v 1.5 3 2
v 2.5 3 2
v 1.5 3 1
v 2.5 3 1
v 1.5 3 -1
v 2.5 3 -1
v 1.5 3 -2
v 2.5 3 -2
v -1.5 3 -4
v -0.5 3 -4
v -1.5 3 -5
v -0.5 3 -5
v -2.5 8 4
v 1.5 8 4
v -1.5 8 3
v 0.5 8 3
v -1.5 8 1
v 0.5 8 1
v -2.5 8 -4
v 1.5 8 -4
v -1.5 9 5
v -0.5 9 5
v -1.5 9 4
v -0.5 9 4
v -1.5 9 3
v 0.5 9 3
v 1.5 9 2
v 2.5 9 2
v -1.5 9 1
v 0.5 9 1
v 1.5 9 1
v 2.5 9 1
v 1.5 9 -1
v 2.5 9 -1
v 1.5 9 -2
v 2.5 9 -2
v -1.5 9 -4
v -0.5 9 -4
v -1.5 9 -5
v -0.5 9 -5
v -2.5 10 5
v -1.5 10 5
v -0.5 10 5
v 2.5 10 5
v -2.5 10 4
v -1.5 10 4
v -0.5 10 4
v 1.5 10 4
v 1.5 10 2
v 2.5 10 2
v 1.5 10 1
v 2.5 10 1
v 1.5 10 -1
v 2.5 10 -1
v 1.5 10 -2
v 2.5 10 -2
v -2.5 10 -4
v -1.5 10 -4
v -0.5 10 -4
v 1.5 10 -4
v -2.5 10 -5
v -1.5 10 -5
v -0.5 10 -5
v 2.5 10 -5

# faces
f 5/1/1 4/1/1 3/1/1
f 6/1/1 4/1/1 5/1/1
f 7/1/1 2/1/1 1/1/1
f 8/1/1 2/1/1 7/1/1
f 9/1/1 4/1/1 6/1/1
f 10/1/1 4/1/1 9/1/1
f 11/1/1 7/1/1 1/1/1
f 12/1/1 4/1/1 10/1/1
f 13/1/1 11/1/1 1/1/1
f 13/1/1 12/1/1 11/1/1
f 14/1/1 4/1/1 12/1/1
f 14/1/1 12/1/1 13/1/1
f 15/1/1 13/1/1 1/1/1
f 16/1/1 13/1/1 15/1/1
f 17/1/1 4/1/1 14/1/1
f 18/1/1 4/1/1 17/1/1
f 21/2/1 20/2/1 19/2/1
f 22/2/1 20/2/1 21/2/1
f 27/1/1 24/1/1 23/1/1
f 28/1/1 24/1/1 27/1/1
f 29/1/1 26/1/1 25/1/1
f 30/1/1 26/1/1 29/1/1
f 35/1/1 32/1/1 31/1/1
f 36/1/1 32/1/1 35/1/1
f 37/1/1 34/1/1 33/1/1
f 38/1/1 34/1/1 37/1/1
f 41/1/1 40/1/1 39/1/1
f 44/1/1 41/1/1 39/1/1
f 44/1/1 42/1/1 41/1/1
f 45/1/1 42/1/1 44/1/1
f 47/1/1 44/1/1 43/1/1
f 47/1/1 46/1/1 45/1/1
f 47/1/1 45/1/1 44/1/1
f 48/1/1 46/1/1 47/1/1
f 49/1/1 46/1/1 48/1/1
f 50/1/1 46/1/1 49/1/1
f 51/1/1 47/1/1 43/1/1
f 52/1/1 49/1/1 48/1/1
f 53/1/1 49/1/1 52/1/1
f 54/1/1 46/1/1 50/1/1
f 55/1/1 53/1/1 52/1/1
f 55/1/1 54/1/1 53/1/1
f 55/1/1 51/1/1 43/1/1
f 55/1/1 52/1/1 51/1/1
f 56/1/1 46/1/1 54/1/1
f 56/1/1 54/1/1 55/1/1
f 59/1/1 58/1/1 57/1/1
f 60/1/1 58/1/1 59/1/1
f 61/1/1 58/1/1 60/1/1
f 62/1/1 58/1/1 61/1/1
f 63/1/1 59/1/1 57/1/1
f 64/1/1 59/1/1 63/1/1
f 65/1/1 61/1/1 60/1/1
f 66/1/1 61/1/1 65/1/1
f 67/1/1 58/1/1 62/1/1
f 68/1/1 58/1/1 67/1/1
f 69/1/2 70/1/2 73/1/2
f 73/1/2 70/1/2 74/1/2
f 71/1/2 72/1/2 75/1/2
f 75/1/2 72/1/2 76/1/2
f 77/1/2 78/1/2 81/1/2
f 81/1/2 78/1/2 82/1/2
f 79/1/2 80/1/2 83/1/2
f 83/1/2 80/1/2 84/1/2
f 85/2/2 86/2/2 87/2/2
f 87/2/2 86/2/2 88/2/2
f 89/1/2 90/1/2 91/1/2
f 91/1/2 90/1/2 92/1/2
f 92/1/2 90/1/2 93/1/2
f 93/1/2 90/1/2 94/1/2
f 89/1/2 91/1/2 95/1/2
f 92/1/2 93/1/2 96/1/2
f 96/1/2 93/1/2 97/1/2
f 94/1/2 90/1/2 98/1/2
f 96/1/2 97/1/2 99/1/2
f 97/1/2 98/1/2 99/1/2
f 89/1/2 95/1/2 99/1/2
f 95/1/2 96/1/2 99/1/2
f 99/1/2 98/1/2 100/1/2
f 100/1/2 98/1/2 101/1/2
f 98/1/2 90/1/2 102/1/2
f 101/1/2 98/1/2 102/1/2
f 89/1/2 99/1/2 103/1/2
f 103/1/2 99/1/2 104/1/2
f 100/1/2 101/1/2 105/1/2
f 105/1/2 101/1/2 106/1/2
f 102/1/2 90/1/2 107/1/2
f 107/1/2 90/1/2 108/1/2
f 111/1/3 110/1/3 109/1/3
f 112/1/3 110/1/3 111/1/3
f 113/1/3 110/1/3 112/1/3
f 114/1/3 110/1/3 113/1/3
f 115/1/3 111/1/3 109/1/3
f 116/1/3 113/1/3 112/1/3
f 117/1/3 113/1/3 116/1/3
f 119/1/3 115/1/3 109/1/3
f 119/1/3 118/1/3 117/1/3
f 119/1/3 117/1/3 116/1/3
f 119/1/3 116/1/3 115/1/3
f 120/1/3 118/1/3 119/1/3
f 123/2/3 122/2/3 121/2/3
f 124/2/3 122/2/3 123/2/3
f 129/1/3 126/1/3 125/1/3
f 130/1/3 126/1/3 129/1/3
f 131/1/3 128/1/3 127/1/3
f 132/1/3 128/1/3 131/1/3
f 135/1/3 134/1/3 133/1/3
f 136/1/3 134/1/3 135/1/3
f 139/1/3 138/1/3 137/1/3
f 140/1/3 138/1/3 139/1/3
f 145/1/3 142/1/3 141/1/3
f 146/1/3 142/1/3 145/1/3
f 147/1/3 144/1/3 143/1/3
f 148/1/3 144/1/3 147/1/3
f 153/1/3 150/1/3 149/1/3
f 154/1/3 150/1/3 153/1/3
f 155/1/3 152/1/3 151/1/3
f 156/1/3 152/1/3 155/1/3
f 157/1/3 153/1/3 149/1/3
f 158/1/3 150/1/3 154/1/3
f 159/1/3 155/1/3 151/1/3
f 161/1/3 157/1/3 149/1/3
f 161/1/3 158/1/3 157/1/3
f 162/1/3 150/1/3 158/1/3
f 162/1/3 158/1/3 161/1/3
f 163/1/3 160/1/3 159/1/3
f 163/1/3 159/1/3 151/1/3
f 164/1/3 160/1/3 163/1/3
f 165/1/4 166/1/4 169/1/4
f 169/1/4 166/1/4 170/1/4
f 167/1/4 168/1/4 171/1/4
f 171/1/4 168/1/4 172/1/4
f 165/1/4 169/1/4 173/1/4
f 170/1/4 166/1/4 174/1/4
f 167/1/4 171/1/4 175/1/4
f 165/1/4 173/1/4 177/1/4
f 173/1/4 174/1/4 177/1/4
f 174/1/4 166/1/4 178/1/4
f 177/1/4 174/1/4 178/1/4
f 175/1/4 176/1/4 179/1/4
f 167/1/4 175/1/4 179/1/4
f 179/1/4 176/1/4 180/1/4
f 181/1/4 182/1/4 183/1/4
f 183/1/4 182/1/4 184/1/4
f 185/1/4 186/1/4 189/1/4
f 189/1/4 186/1/4 190/1/4
f 187/1/4 188/1/4 191/1/4
f 191/1/4 188/1/4 192/1/4
f 193/2/4 194/2/4 195/2/4
f 195/2/4 194/2/4 196/2/4
f 197/1/4 198/1/4 201/1/4
f 201/1/4 198/1/4 202/1/4
f 199/1/4 200/1/4 203/1/4
f 203/1/4 200/1/4 204/1/4
f 205/1/4 206/1/4 207/1/4
f 207/1/4 206/1/4 208/1/4
f 208/1/4 206/1/4 209/1/4
f 209/1/4 206/1/4 210/1/4
f 205/1/4 207/1/4 211/1/4
f 208/1/4 209/1/4 212/1/4
f 212/1/4 209/1/4 213/1/4
f 205/1/4 211/1/4 215/1/4
f 213/1/4 214/1/4 215/1/4
f 212/1/4 213/1/4 215/1/4
f 211/1/4 212/1/4 215/1/4
f 215/1/4 214/1/4 216/1/4
f 219/1/5 218/1/5 217/1/5
f 220/1/5 218/1/5 219/1/5
f 222/1/5 218/1/5 220/1/5
f 223/1/5 222/1/5 221/1/5
f 224/1/5 218/1/5 222/1/5
f 224/1/5 222/1/5 223/1/5
f 227/1/5 226/1/5 225/1/5
f 228/1/5 226/1/5 227/1/5
f 231/1/5 230/1/5 229/1/5
f 232/1/5 230/1/5 231/1/5
f 235/1/5 234/1/5 233/1/5
f 236/1/5 234/1/5 235/1/5
f 239/1/5 238/1/5 237/1/5
f 240/1/5 238/1/5 239/1/5
f 243/1/5 242/1/5 241/1/5
f 244/1/5 242/1/5 243/1/5
f 245/1/6 246/1/6 247/1/6
f 247/1/6 246/1/6 248/1/6
f 249/1/6 250/1/6 251/1/6
f 251/1/6 250/1/6 252/1/6
f 253/1/6 254/1/6 255/1/6
f 255/1/6 254/1/6 256/1/6
f 257/1/6 258/1/6 259/1/6
f 259/1/6 258/1/6 260/1/6
f 261/1/6 262/1/6 263/1/6
f 263/1/6 262/1/6 264/1/6
f 265/1/6 266/1/6 267/1/6
f 267/1/6 266/1/6 268/1/6
f 269/1/6 270/1/6 271/1/6
f 271/1/6 270/1/6 272/1/6
f 273/1/6 274/1/6 275/1/6
f 275/1/6 274/1/6 276/1/6
f 273/1/6 275/1/6 277/1/6
f 276/1/6 274/1/6 278/1/6
f 273/1/6 277/1/6 279/1/6
f 277/1/6 278/1/6 279/1/6
f 278/1/6 274/1/6 280/1/6
f 279/1/6 278/1/6 280/1/6
f 281/1/6 282/1/6 283/1/6
f 283/1/6 282/1/6 284/1/6
f 285/2/6 286/2/6 289/2/6
f 289/2/6 286/2/6 290/2/6
f 287/1/6 288/1/6 291/1/6
f 291/1/6 288/1/6 292/1/6
f 293/1/6 294/1/6 295/1/6
f 295/1/6 294/1/6 296/1/6
f 297/1/6 298/1/6 299/1/6
f 299/1/6 298/1/6 300/1/6
f 301/1/6 302/1/6 305/1/6
f 305/1/6 302/1/6 306/1/6
f 303/1/6 304/1/6 307/1/6
f 307/1/6 304/1/6 308/1/6
f 308/1/6 304/1/6 309/1/6
f 309/1/6 304/1/6 310/1/6
f 311/1/6 312/1/6 313/1/6
f 313/1/6 312/1/6 314/1/6
f 315/1/6 316/1/6 320/1/6
f 317/1/6 318/1/6 321/1/6
f 321/1/6 318/1/6 322/1/6
f 319/1/6 320/1/6 323/1/6
f 320/1/6 316/1/6 324/1/6
f 323/1/6 320/1/6 324/1/6
