# MagicaVoxel @ Ephtracy

# material
mtllib brick.mtl
usemtl palette

# normals
vn -1 0 0
vn 1 0 0
vn 0 0 1
vn 0 0 -1
vn 0 -1 0
vn 0 1 0

# texcoords
vt 0.896484 0.5
vt 0.900391 0.5
vt 0.982422 0.5
vt 0.986328 0.5

# verts
v -5 0 5
v -5 0 -5
v -5 2 2
v -5 2 1
v -5 2 -4
v -5 2 -5
v -5 3 2
v -5 3 1
v -5 3 -4
v -5 3 -5
v -5 5 3
v -5 5 2
v -5 6 5
v -5 6 4
v -5 6 3
v -5 6 2
v -5 6 -3
v -5 6 -4
v -5 7 5
v -5 7 4
v -5 7 -1
v -5 7 -2
v -5 7 -3
v -5 7 -4
v -5 8 3
v -5 8 2
v -5 8 -3
v -5 8 -4
v -5 9 5
v -5 9 3
v -5 9 2
v -5 9 1
v -5 9 -1
v -5 9 -2
v -5 9 -3
v -5 9 -4
v -5 9 -5
v -5 10 5
v -5 10 2
v -5 10 1
v -5 10 -1
v -5 10 -2
v -5 10 -5
v 5 0 5
v 5 0 -5
v 5 2 5
v 5 2 4
v 5 2 -1
v 5 2 -2
v 5 3 5
v 5 3 4
v 5 3 -1
v 5 3 -2
v 5 4 2
v 5 4 -0
v 5 6 2
v 5 6 -0
v 5 6 -3
v 5 6 -4
v 5 7 4
v 5 7 3
v 5 7 -3
v 5 7 -4
v 5 8 1
v 5 8 -0
v 5 8 -2
v 5 8 -3
v 5 9 5
v 5 9 4
v 5 9 3
v 5 9 1
v 5 9 -0
v 5 9 -1
v 5 9 -2
v 5 9 -3
v 5 9 -5
v 5 10 5
v 5 10 3
v 5 10 -1
v 5 10 -3
v 5 10 -5
v -5 0 5
v -5 6 5
v -5 7 5
v -5 9 5
v -5 10 5
v -4 6 5
v -4 7 5
v -4 8 5
v -4 9 5
v -4 10 5
v -3 2 5
v -3 4 5
v -3 8 5
v -3 9 5
v -3 10 5
v -2 8 5
v -2 9 5
v -1 2 5
v -1 4 5
v -1 8 5
v -1 9 5
v 0 7 5
v 0 9 5
v 0 10 5
v 1 4 5
v 1 5 5
v 1 7 5
v 1 9 5
v 2 4 5
v 2 5 5
v 2 9 5
v 2 10 5
v 3 8 5
v 3 9 5
v 4 2 5
v 4 3 5
v 4 8 5
v 4 9 5
v 4 10 5
v 5 0 5
v 5 2 5
v 5 3 5
v 5 9 5
v 5 10 5
v -5 0 -5
v -5 2 -5
v -5 3 -5
v -5 9 -5
v -5 10 -5
v -4 2 -5
v -4 3 -5
v -4 9 -5
v -4 10 -5
v -3 4 -5
v -3 5 -5
v -3 9 -5
v -3 10 -5
v -2 4 -5
v -2 5 -5
v -2 8 -5
v -2 9 -5
v -1 2 -5
v -1 3 -5
v -1 8 -5
v -1 9 -5
v 0 2 -5
v 0 3 -5
v 1 4 -5
v 1 6 -5
v 1 8 -5
v 1 9 -5
v 1 10 -5
v 2 8 -5
v 2 9 -5
v 2 10 -5
v 3 4 -5
v 3 6 -5
v 5 0 -5
v 5 9 -5
v 5 10 -5
v -5 0 5
v 5 0 5
v -5 0 -5
v 5 0 -5
v -5 10 5
v -4 10 5
v -3 10 5
v 0 10 5
v 2 10 5
v 4 10 5
v 5 10 5
v -3 10 4
v -1 10 4
v 0 10 4
v 2 10 4
v 4 10 4
v -4 10 3
v -3 10 3
v -2 10 3
v -1 10 3
v 0 10 3
v 1 10 3
v 2 10 3
v 3 10 3
v 4 10 3
v 5 10 3
v -5 10 2
v -4 10 2
v -2 10 2
v -1 10 2
v 0 10 2
v 1 10 2
v 3 10 2
v 4 10 2
v -5 10 1
v -4 10 1
v -3 10 1
v -1 10 1
v 1 10 1
v 2 10 1
v 3 10 1
v -3 10 -0
v -2 10 -0
v 0 10 -0
v 2 10 -0
v 3 10 -0
v 4 10 -0
v -5 10 -1
v -4 10 -1
v -3 10 -1
v -1 10 -1
v 0 10 -1
v 2 10 -1
v 3 10 -1
v 4 10 -1
v 5 10 -1
v -5 10 -2
v -4 10 -2
v -1 10 -2
v 0 10 -2
v 1 10 -2
v 2 10 -2
v 3 10 -2
v -4 10 -3
v -2 10 -3
v -1 10 -3
v 0 10 -3
v 1 10 -3
v 3 10 -3
v 4 10 -3
v 5 10 -3
v -3 10 -4
v -2 10 -4
v -1 10 -4
v 0 10 -4
v 1 10 -4
v 2 10 -4
v 4 10 -4
v -5 10 -5
v -4 10 -5
v -3 10 -5
v 1 10 -5
v 2 10 -5
v 5 10 -5

# faces
f 3/3/1 2/3/1 1/3/1
f 4/3/1 2/3/1 3/3/1
f 5/3/1 2/3/1 4/3/1
f 6/3/1 2/3/1 5/3/1
f 7/3/1 3/3/1 1/3/1
f 7/4/1 4/4/1 3/4/1
f 8/3/1 5/3/1 4/3/1
f 8/4/1 4/4/1 7/4/1
f 9/4/1 6/4/1 5/4/1
f 9/3/1 5/3/1 8/3/1
f 10/4/1 6/4/1 9/4/1
f 11/3/1 8/3/1 7/3/1
f 11/3/1 7/3/1 1/3/1
f 11/3/1 10/3/1 9/3/1
f 11/3/1 9/3/1 8/3/1
f 12/3/1 10/3/1 11/3/1
f 13/3/1 11/3/1 1/3/1
f 14/3/1 11/3/1 13/3/1
f 15/4/1 12/4/1 11/4/1
f 15/3/1 11/3/1 14/3/1
f 16/3/1 10/3/1 12/3/1
f 16/4/1 12/4/1 15/4/1
f 17/3/1 10/3/1 16/3/1
f 18/3/1 10/3/1 17/3/1
f 19/4/1 14/4/1 13/4/1
f 20/3/1 15/3/1 14/3/1
f 20/4/1 14/4/1 19/4/1
f 20/3/1 16/3/1 15/3/1
f 20/3/1 17/3/1 16/3/1
f 21/3/1 17/3/1 20/3/1
f 22/3/1 17/3/1 21/3/1
f 23/4/1 18/4/1 17/4/1
f 23/3/1 17/3/1 22/3/1
f 24/3/1 10/3/1 18/3/1
f 24/4/1 18/4/1 23/4/1
f 25/3/1 20/3/1 19/3/1
f 25/3/1 21/3/1 20/3/1
f 26/3/1 21/3/1 25/3/1
f 27/3/1 23/3/1 22/3/1
f 27/3/1 24/3/1 23/3/1
f 28/3/1 10/3/1 24/3/1
f 28/3/1 24/3/1 27/3/1
f 29/3/1 25/3/1 19/3/1
f 30/2/1 26/2/1 25/2/1
f 30/3/1 25/3/1 29/3/1
f 31/3/1 21/3/1 26/3/1
f 31/2/1 26/2/1 30/2/1
f 32/3/1 21/3/1 31/3/1
f 33/1/1 22/1/1 21/1/1
f 33/3/1 21/3/1 32/3/1
f 34/3/1 27/3/1 22/3/1
f 34/1/1 22/1/1 33/1/1
f 35/2/1 28/2/1 27/2/1
f 35/3/1 27/3/1 34/3/1
f 36/3/1 10/3/1 28/3/1
f 36/2/1 28/2/1 35/2/1
f 37/3/1 10/3/1 36/3/1
f 38/2/1 30/2/1 29/2/1
f 38/2/1 31/2/1 30/2/1
f 39/1/1 32/1/1 31/1/1
f 39/2/1 31/2/1 38/2/1
f 40/2/1 33/2/1 32/2/1
f 40/1/1 32/1/1 39/1/1
f 41/1/1 34/1/1 33/1/1
f 41/2/1 33/2/1 40/2/1
f 42/2/1 35/2/1 34/2/1
f 42/1/1 34/1/1 41/1/1
f 42/2/1 37/2/1 36/2/1
f 42/2/1 36/2/1 35/2/1
f 43/2/1 37/2/1 42/2/1
f 44/3/2 45/3/2 46/3/2
f 46/3/2 45/3/2 47/3/2
f 47/3/2 45/3/2 48/3/2
f 48/3/2 45/3/2 49/3/2
f 46/4/2 47/4/2 50/4/2
f 47/3/2 48/3/2 51/3/2
f 50/4/2 47/4/2 51/4/2
f 48/4/2 49/4/2 52/4/2
f 51/3/2 48/3/2 52/3/2
f 49/3/2 45/3/2 53/3/2
f 52/4/2 49/4/2 53/4/2
f 51/3/2 52/3/2 54/3/2
f 50/3/2 51/3/2 54/3/2
f 52/3/2 53/3/2 54/3/2
f 54/3/2 53/3/2 55/3/2
f 50/3/2 54/3/2 56/3/2
f 54/4/2 55/4/2 56/4/2
f 55/3/2 53/3/2 57/3/2
f 56/4/2 55/4/2 57/4/2
f 53/3/2 45/3/2 58/3/2
f 57/3/2 53/3/2 58/3/2
f 58/3/2 45/3/2 59/3/2
f 56/3/2 57/3/2 60/3/2
f 50/3/2 56/3/2 60/3/2
f 57/3/2 58/3/2 60/3/2
f 60/3/2 58/3/2 61/3/2
f 58/4/2 59/4/2 62/4/2
f 61/3/2 58/3/2 62/3/2
f 59/3/2 45/3/2 63/3/2
f 62/4/2 59/4/2 63/4/2
f 61/3/2 62/3/2 64/3/2
f 62/3/2 63/3/2 64/3/2
f 64/3/2 63/3/2 65/3/2
f 65/3/2 63/3/2 66/3/2
f 66/3/2 63/3/2 67/3/2
f 50/3/2 60/3/2 68/3/2
f 60/1/2 61/1/2 69/1/2
f 68/3/2 60/3/2 69/3/2
f 61/3/2 64/3/2 70/3/2
f 69/1/2 61/1/2 70/1/2
f 64/2/2 65/2/2 71/2/2
f 70/3/2 64/3/2 71/3/2
f 65/3/2 66/3/2 72/3/2
f 71/2/2 65/2/2 72/2/2
f 72/3/2 66/3/2 73/3/2
f 66/1/2 67/1/2 74/1/2
f 73/3/2 66/3/2 74/3/2
f 67/3/2 63/3/2 75/3/2
f 74/1/2 67/1/2 75/1/2
f 63/3/2 45/3/2 76/3/2
f 75/3/2 63/3/2 76/3/2
f 68/1/2 69/1/2 77/1/2
f 69/1/2 70/1/2 77/1/2
f 70/2/2 71/2/2 78/2/2
f 77/1/2 70/1/2 78/1/2
f 72/2/2 73/2/2 78/2/2
f 71/2/2 72/2/2 78/2/2
f 74/1/2 75/1/2 79/1/2
f 78/2/2 73/2/2 79/2/2
f 73/1/2 74/1/2 79/1/2
f 75/2/2 76/2/2 80/2/2
f 79/1/2 75/1/2 80/1/2
f 80/2/2 76/2/2 81/2/2
f 87/3/3 83/3/3 82/3/3
f 87/4/3 84/4/3 83/4/3
f 88/3/3 85/3/3 84/3/3
f 88/4/3 84/4/3 87/4/3
f 89/3/3 85/3/3 88/3/3
f 90/2/3 86/2/3 85/2/3
f 90/3/3 85/3/3 89/3/3
f 91/2/3 86/2/3 90/2/3
f 92/3/3 89/3/3 88/3/3
f 92/3/3 87/3/3 82/3/3
f 92/3/3 88/3/3 87/3/3
f 93/3/3 89/3/3 92/3/3
f 94/1/3 91/1/3 90/1/3
f 94/3/3 89/3/3 93/3/3
f 94/1/3 90/1/3 89/1/3
f 95/1/3 91/1/3 94/1/3
f 96/1/3 91/1/3 95/1/3
f 97/3/3 94/3/3 93/3/3
f 97/3/3 95/3/3 94/3/3
f 98/2/3 96/2/3 95/2/3
f 98/3/3 95/3/3 97/3/3
f 99/4/3 93/4/3 92/4/3
f 99/3/3 92/3/3 82/3/3
f 100/3/3 97/3/3 93/3/3
f 100/4/3 93/4/3 99/4/3
f 101/2/3 98/2/3 97/2/3
f 101/3/3 97/3/3 100/3/3
f 102/2/3 96/2/3 98/2/3
f 102/2/3 98/2/3 101/2/3
f 103/3/3 101/3/3 100/3/3
f 103/3/3 100/3/3 99/3/3
f 103/3/3 102/3/3 101/3/3
f 104/2/3 96/2/3 102/2/3
f 104/3/3 102/3/3 103/3/3
f 105/2/3 96/2/3 104/2/3
f 106/3/3 103/3/3 99/3/3
f 107/3/3 103/3/3 106/3/3
f 108/1/3 104/1/3 103/1/3
f 108/3/3 103/3/3 107/3/3
f 108/1/3 105/1/3 104/1/3
f 109/1/3 105/1/3 108/1/3
f 110/4/3 107/4/3 106/4/3
f 110/3/3 106/3/3 99/3/3
f 111/3/3 109/3/3 108/3/3
f 111/4/3 107/4/3 110/4/3
f 111/3/3 108/3/3 107/3/3
f 112/1/3 105/1/3 109/1/3
f 112/3/3 109/3/3 111/3/3
f 113/1/3 105/1/3 112/1/3
f 114/3/3 111/3/3 110/3/3
f 114/3/3 112/3/3 111/3/3
f 115/2/3 113/2/3 112/2/3
f 115/3/3 112/3/3 114/3/3
f 116/3/3 99/3/3 82/3/3
f 116/3/3 110/3/3 99/3/3
f 116/3/3 114/3/3 110/3/3
f 117/3/3 114/3/3 116/3/3
f 118/2/3 115/2/3 114/2/3
f 118/3/3 114/3/3 117/3/3
f 119/2/3 113/2/3 115/2/3
f 119/2/3 115/2/3 118/2/3
f 120/2/3 113/2/3 119/2/3
f 121/3/3 116/3/3 82/3/3
f 122/4/3 117/4/3 116/4/3
f 122/3/3 116/3/3 121/3/3
f 123/3/3 118/3/3 117/3/3
f 123/4/3 117/4/3 122/4/3
f 123/3/3 119/3/3 118/3/3
f 124/1/3 120/1/3 119/1/3
f 124/3/3 119/3/3 123/3/3
f 125/1/3 120/1/3 124/1/3
f 126/3/4 127/3/4 131/3/4
f 127/4/4 128/4/4 131/4/4
f 128/3/4 129/3/4 132/3/4
f 131/4/4 128/4/4 132/4/4
f 129/2/4 130/2/4 133/2/4
f 132/3/4 129/3/4 133/3/4
f 133/2/4 130/2/4 134/2/4
f 131/3/4 132/3/4 135/3/4
f 132/3/4 133/3/4 135/3/4
f 135/3/4 133/3/4 136/3/4
f 133/1/4 134/1/4 137/1/4
f 136/3/4 133/3/4 137/3/4
f 137/1/4 134/1/4 138/1/4
f 135/4/4 136/4/4 139/4/4
f 131/3/4 135/3/4 139/3/4
f 136/3/4 137/3/4 140/3/4
f 139/4/4 136/4/4 140/4/4
f 140/3/4 137/3/4 141/3/4
f 137/2/4 138/2/4 142/2/4
f 141/3/4 137/3/4 142/3/4
f 126/3/4 131/3/4 143/3/4
f 140/3/4 141/3/4 143/3/4
f 131/3/4 139/3/4 143/3/4
f 139/3/4 140/3/4 143/3/4
f 143/3/4 141/3/4 144/3/4
f 141/2/4 142/2/4 145/2/4
f 144/3/4 141/3/4 145/3/4
f 142/2/4 138/2/4 146/2/4
f 145/2/4 142/2/4 146/2/4
f 143/4/4 144/4/4 147/4/4
f 126/3/4 143/3/4 147/3/4
f 144/3/4 145/3/4 148/3/4
f 147/4/4 144/4/4 148/4/4
f 145/3/4 146/3/4 148/3/4
f 147/3/4 148/3/4 149/3/4
f 148/3/4 146/3/4 149/3/4
f 149/3/4 146/3/4 150/3/4
f 150/3/4 146/3/4 151/3/4
f 146/2/4 138/2/4 152/2/4
f 151/3/4 146/3/4 152/3/4
f 152/2/4 138/2/4 153/2/4
f 150/3/4 151/3/4 154/3/4
f 151/1/4 152/1/4 154/1/4
f 152/1/4 153/1/4 154/1/4
f 154/1/4 153/1/4 155/1/4
f 155/1/4 153/1/4 156/1/4
f 147/3/4 149/3/4 157/3/4
f 149/4/4 150/4/4 157/4/4
f 150/3/4 154/3/4 158/3/4
f 157/4/4 150/4/4 158/4/4
f 154/3/4 155/3/4 158/3/4
f 126/3/4 147/3/4 159/3/4
f 147/3/4 157/3/4 159/3/4
f 157/3/4 158/3/4 159/3/4
f 158/3/4 155/3/4 160/3/4
f 159/3/4 158/3/4 160/3/4
f 155/2/4 156/2/4 160/2/4
f 160/2/4 156/2/4 161/2/4
f 164/3/5 163/3/5 162/3/5
f 165/3/5 163/3/5 164/3/5
f 167/1/6 168/1/6 173/1/6
f 168/2/6 169/2/6 173/2/6
f 173/2/6 169/2/6 174/2/6
f 169/1/6 170/1/6 175/1/6
f 174/2/6 169/2/6 175/2/6
f 170/2/6 171/2/6 176/2/6
f 175/1/6 170/1/6 176/1/6
f 171/1/6 172/1/6 177/1/6
f 176/2/6 171/2/6 177/2/6
f 166/2/6 167/2/6 178/2/6
f 173/1/6 174/1/6 178/1/6
f 167/1/6 173/1/6 178/1/6
f 178/1/6 174/1/6 179/1/6
f 179/1/6 174/1/6 180/1/6
f 175/2/6 176/2/6 181/2/6
f 180/1/6 174/1/6 181/1/6
f 174/2/6 175/2/6 181/2/6
f 181/2/6 176/2/6 182/2/6
f 182/2/6 176/2/6 183/2/6
f 176/1/6 177/1/6 184/1/6
f 183/2/6 176/2/6 184/2/6
f 184/1/6 177/1/6 185/1/6
f 177/1/6 172/1/6 186/1/6
f 185/1/6 177/1/6 186/1/6
f 186/1/6 172/1/6 187/1/6
f 178/2/6 179/2/6 188/2/6
f 166/2/6 178/2/6 188/2/6
f 188/2/6 179/2/6 189/2/6
f 179/1/6 180/1/6 190/1/6
f 180/2/6 181/2/6 190/2/6
f 181/2/6 182/2/6 190/2/6
f 190/2/6 182/2/6 191/2/6
f 182/1/6 183/1/6 192/1/6
f 191/2/6 182/2/6 192/2/6
f 184/2/6 185/2/6 193/2/6
f 192/1/6 183/1/6 193/1/6
f 183/2/6 184/2/6 193/2/6
f 185/1/6 186/1/6 194/1/6
f 193/2/6 185/2/6 194/2/6
f 186/2/6 187/2/6 195/2/6
f 194/1/6 186/1/6 195/1/6
f 188/1/6 189/1/6 196/1/6
f 189/2/6 179/2/6 197/2/6
f 196/1/6 189/1/6 197/1/6
f 190/1/6 191/1/6 198/1/6
f 197/2/6 179/2/6 198/2/6
f 179/1/6 190/1/6 198/1/6
f 191/2/6 192/2/6 199/2/6
f 198/1/6 191/1/6 199/1/6
f 192/2/6 193/2/6 199/2/6
f 193/1/6 194/1/6 200/1/6
f 199/2/6 193/2/6 200/2/6
f 200/1/6 194/1/6 201/1/6
f 194/2/6 195/2/6 202/2/6
f 201/1/6 194/1/6 202/1/6
f 197/1/6 198/1/6 203/1/6
f 198/1/6 199/1/6 203/1/6
f 200/1/6 201/1/6 203/1/6
f 199/1/6 200/1/6 203/1/6
f 203/1/6 201/1/6 204/1/6
f 204/1/6 201/1/6 205/1/6
f 201/2/6 202/2/6 206/2/6
f 205/1/6 201/1/6 206/1/6
f 202/2/6 195/2/6 207/2/6
f 206/2/6 202/2/6 207/2/6
f 195/2/6 187/2/6 208/2/6
f 207/2/6 195/2/6 208/2/6
f 196/2/6 197/2/6 209/2/6
f 197/1/6 203/1/6 210/1/6
f 209/2/6 197/2/6 210/2/6
f 203/2/6 204/2/6 211/2/6
f 210/1/6 203/1/6 211/1/6
f 204/1/6 205/1/6 212/1/6
f 205/2/6 206/2/6 213/2/6
f 212/1/6 205/1/6 213/1/6
f 206/2/6 207/2/6 213/2/6
f 213/2/6 207/2/6 214/2/6
f 207/1/6 208/1/6 215/1/6
f 214/2/6 207/2/6 215/2/6
f 208/2/6 187/2/6 216/2/6
f 215/1/6 208/1/6 216/1/6
f 216/2/6 187/2/6 217/2/6
f 209/1/6 210/1/6 218/1/6
f 210/2/6 211/2/6 219/2/6
f 218/1/6 210/1/6 219/1/6
f 204/1/6 212/1/6 220/1/6
f 212/2/6 213/2/6 220/2/6
f 213/1/6 214/1/6 221/1/6
f 220/2/6 213/2/6 221/2/6
f 221/1/6 214/1/6 222/1/6
f 214/2/6 215/2/6 223/2/6
f 222/1/6 214/1/6 223/1/6
f 215/2/6 216/2/6 223/2/6
f 223/2/6 216/2/6 224/2/6
f 219/2/6 211/2/6 225/2/6
f 218/2/6 219/2/6 225/2/6
f 221/1/6 222/1/6 226/1/6
f 225/2/6 211/2/6 226/2/6
f 211/2/6 204/2/6 226/2/6
f 204/1/6 220/1/6 226/1/6
f 220/1/6 221/1/6 226/1/6
f 226/1/6 222/1/6 227/1/6
f 227/1/6 222/1/6 228/1/6
f 222/2/6 223/2/6 229/2/6
f 228/1/6 222/1/6 229/1/6
f 224/2/6 216/2/6 230/2/6
f 223/1/6 224/1/6 230/1/6
f 216/1/6 217/1/6 231/1/6
f 230/2/6 216/2/6 231/2/6
f 231/1/6 217/1/6 232/1/6
f 225/1/6 226/1/6 233/1/6
f 226/2/6 227/2/6 234/2/6
f 233/1/6 226/1/6 234/1/6
f 227/1/6 228/1/6 235/1/6
f 234/2/6 227/2/6 235/2/6
f 228/2/6 229/2/6 236/2/6
f 235/1/6 228/1/6 236/1/6
f 229/2/6 223/2/6 237/2/6
f 236/2/6 229/2/6 237/2/6
f 223/1/6 230/1/6 238/1/6
f 237/2/6 223/2/6 238/2/6
f 230/1/6 231/1/6 238/1/6
f 231/2/6 232/2/6 239/2/6
f 238/1/6 231/1/6 239/1/6
f 218/2/6 225/2/6 240/2/6
f 225/1/6 233/1/6 241/1/6
f 240/2/6 225/2/6 241/2/6
f 235/2/6 236/2/6 242/2/6
f 241/1/6 233/1/6 242/1/6
f 233/2/6 234/2/6 242/2/6
f 236/2/6 237/2/6 242/2/6
f 234/2/6 235/2/6 242/2/6
f 237/1/6 238/1/6 243/1/6
f 242/2/6 237/2/6 243/2/6
f 238/2/6 239/2/6 244/2/6
f 243/1/6 238/1/6 244/1/6
f 239/2/6 232/2/6 245/2/6
f 244/2/6 239/2/6 245/2/6
