# MagicaVoxel @ Ephtracy

# material
mtllib wall2.mtl
usemtl palette

# normals
vn -1 0 0
vn 1 0 0
vn 0 0 1
vn 0 0 -1
vn 0 -1 0
vn 0 1 0

# texcoords
vt 0.974609 0.5
vt 0.978516 0.5

# verts
v -5 0 2
v -5 0 -4
v -5 1 -3
v -5 1 -4
v -5 6 -2
v -5 6 -3
v -5 6 -4
v -5 8 2
v -5 8 -2
v -5 8 -4
v -5 8 -5
v -5 11 -2
v -5 11 -5
v -3 0 -4
v -3 0 -5
v -3 1 -4
v -3 1 -5
v -3 4 -3
v -3 4 -4
v -3 6 -3
v -3 6 -4
v -1 10 -2
v -1 10 -5
v -1 11 -2
v -1 11 -5
v 1 0 -4
v 1 0 -5
v 1 1 -4
v 1 1 -5
v 1 4 -3
v 1 4 -4
v 1 6 -3
v 1 6 -4
v 3 10 -2
v 3 10 -5
v 3 11 -2
v 3 11 -5
v -3 10 -2
v -3 10 -5
v -3 11 -2
v -3 11 -5
v -1 0 -4
v -1 0 -5
v -1 1 -4
v -1 1 -5
v -1 4 -3
v -1 4 -4
v -1 6 -3
v -1 6 -4
v 1 10 -2
v 1 10 -5
v 1 11 -2
v 1 11 -5
v 3 0 -4
v 3 0 -5
v 3 1 -4
v 3 1 -5
v 3 4 -3
v 3 4 -4
v 3 6 -3
v 3 6 -4
v 5 0 2
v 5 0 -4
v 5 1 -3
v 5 1 -4
v 5 6 -2
v 5 6 -3
v 5 6 -4
v 5 8 2
v 5 8 -2
v 5 8 -4
v 5 8 -5
v 5 11 -2
v 5 11 -5
v -5 0 2
v -5 8 2
v 5 0 2
v 5 8 2
v -5 8 -2
v -5 11 -2
v -3 10 -2
v -3 11 -2
v -1 10 -2
v -1 11 -2
v 1 10 -2
v 1 11 -2
v 3 10 -2
v 3 11 -2
v 5 8 -2
v 5 11 -2
v -5 1 -3
v -5 6 -3
v -3 4 -3
v -3 6 -3
v -1 4 -3
v -1 6 -3
v 1 4 -3
v 1 6 -3
v 3 4 -3
v 3 6 -3
v 5 1 -3
v 5 6 -3
v -5 0 -4
v -5 1 -4
v -5 6 -4
v -5 8 -4
v -3 0 -4
v -3 1 -4
v -3 4 -4
v -3 6 -4
v -1 0 -4
v -1 1 -4
v -1 4 -4
v -1 6 -4
v 1 0 -4
v 1 1 -4
v 1 4 -4
v 1 6 -4
v 3 0 -4
v 3 1 -4
v 3 4 -4
v 3 6 -4
v 5 0 -4
v 5 1 -4
v 5 6 -4
v 5 8 -4
v -5 8 -5
v -5 11 -5
v -3 0 -5
v -3 1 -5
v -3 10 -5
v -3 11 -5
v -1 0 -5
v -1 1 -5
v -1 10 -5
v -1 11 -5
v 1 0 -5
v 1 1 -5
v 1 10 -5
v 1 11 -5
v 3 0 -5
v 3 1 -5
v 3 10 -5
v 3 11 -5
v 5 8 -5
v 5 11 -5
v -5 0 2
v 5 0 2
v -5 0 -4
v -3 0 -4
v -1 0 -4
v 1 0 -4
v 3 0 -4
v 5 0 -4
v -3 0 -5
v -1 0 -5
v 1 0 -5
v 3 0 -5
v -3 4 -3
v -1 4 -3
v 1 4 -3
v 3 4 -3
v -3 4 -4
v -1 4 -4
v 1 4 -4
v 3 4 -4
v -5 6 -3
v -3 6 -3
v -1 6 -3
v 1 6 -3
v 3 6 -3
v 5 6 -3
v -5 6 -4
v -3 6 -4
v -1 6 -4
v 1 6 -4
v 3 6 -4
v 5 6 -4
v -5 8 -4
v 5 8 -4
v -5 8 -5
v 5 8 -5
v -5 1 -3
v 5 1 -3
v -5 1 -4
v -3 1 -4
v -1 1 -4
v 1 1 -4
v 3 1 -4
v 5 1 -4
v -3 1 -5
v -1 1 -5
v 1 1 -5
v 3 1 -5
v -5 8 2
v 5 8 2
v -5 8 -2
v 5 8 -2
v -3 10 -2
v -1 10 -2
v 1 10 -2
v 3 10 -2
v -3 10 -5
v -1 10 -5
v 1 10 -5
v 3 10 -5
v -5 11 -2
v -3 11 -2
v -1 11 -2
v 1 11 -2
v 3 11 -2
v 5 11 -2
v -5 11 -5
v -3 11 -5
v -1 11 -5
v 1 11 -5
v 3 11 -5
v 5 11 -5

# faces
f 3/2/1 2/2/1 1/2/1
f 4/2/1 2/2/1 3/2/1
f 5/2/1 3/2/1 1/2/1
f 6/2/1 3/2/1 5/2/1
f 8/2/1 5/2/1 1/2/1
f 9/1/1 7/1/1 6/1/1
f 9/2/1 5/2/1 8/2/1
f 9/1/1 6/1/1 5/1/1
f 10/1/1 7/1/1 9/1/1
f 12/1/1 10/1/1 9/1/1
f 12/1/1 11/1/1 10/1/1
f 13/1/1 11/1/1 12/1/1
f 16/2/1 15/2/1 14/2/1
f 17/2/1 15/2/1 16/2/1
f 20/1/1 19/1/1 18/1/1
f 21/1/1 19/1/1 20/1/1
f 24/1/1 23/1/1 22/1/1
f 25/1/1 23/1/1 24/1/1
f 28/2/1 27/2/1 26/2/1
f 29/2/1 27/2/1 28/2/1
f 32/1/1 31/1/1 30/1/1
f 33/1/1 31/1/1 32/1/1
f 36/1/1 35/1/1 34/1/1
f 37/1/1 35/1/1 36/1/1
f 38/1/2 39/1/2 40/1/2
f 40/1/2 39/1/2 41/1/2
f 42/2/2 43/2/2 44/2/2
f 44/2/2 43/2/2 45/2/2
f 46/1/2 47/1/2 48/1/2
f 48/1/2 47/1/2 49/1/2
f 50/1/2 51/1/2 52/1/2
f 52/1/2 51/1/2 53/1/2
f 54/2/2 55/2/2 56/2/2
f 56/2/2 55/2/2 57/2/2
f 58/1/2 59/1/2 60/1/2
f 60/1/2 59/1/2 61/1/2
f 62/2/2 63/2/2 64/2/2
f 64/2/2 63/2/2 65/2/2
f 62/2/2 64/2/2 66/2/2
f 66/2/2 64/2/2 67/2/2
f 62/2/2 66/2/2 69/2/2
f 67/1/2 68/1/2 70/1/2
f 69/2/2 66/2/2 70/2/2
f 66/1/2 67/1/2 70/1/2
f 70/1/2 68/1/2 71/1/2
f 70/1/2 71/1/2 73/1/2
f 71/1/2 72/1/2 73/1/2
f 73/1/2 72/1/2 74/1/2
f 77/2/3 76/2/3 75/2/3
f 78/2/3 76/2/3 77/2/3
f 81/1/3 80/1/3 79/1/3
f 82/1/3 80/1/3 81/1/3
f 83/1/3 81/1/3 79/1/3
f 85/1/3 83/1/3 79/1/3
f 85/1/3 84/1/3 83/1/3
f 86/1/3 84/1/3 85/1/3
f 87/1/3 85/1/3 79/1/3
f 89/1/3 87/1/3 79/1/3
f 89/1/3 88/1/3 87/1/3
f 90/1/3 88/1/3 89/1/3
f 91/2/4 92/2/4 93/2/4
f 93/2/4 92/2/4 94/2/4
f 91/2/4 93/2/4 95/2/4
f 91/2/4 95/2/4 97/2/4
f 95/2/4 96/2/4 97/2/4
f 97/2/4 96/2/4 98/2/4
f 91/2/4 97/2/4 99/2/4
f 91/2/4 99/2/4 101/2/4
f 99/2/4 100/2/4 101/2/4
f 101/2/4 100/2/4 102/2/4
f 103/2/4 104/2/4 107/2/4
f 107/2/4 104/2/4 108/2/4
f 105/1/4 106/1/4 110/1/4
f 109/1/4 110/1/4 113/1/4
f 110/1/4 106/1/4 114/1/4
f 113/1/4 110/1/4 114/1/4
f 111/2/4 112/2/4 115/2/4
f 115/2/4 112/2/4 116/2/4
f 114/1/4 106/1/4 118/1/4
f 117/1/4 118/1/4 121/1/4
f 118/1/4 106/1/4 122/1/4
f 121/1/4 118/1/4 122/1/4
f 119/2/4 120/2/4 123/2/4
f 123/2/4 120/2/4 124/2/4
f 122/1/4 106/1/4 125/1/4
f 125/1/4 106/1/4 126/1/4
f 127/1/4 128/1/4 131/1/4
f 131/1/4 128/1/4 132/1/4
f 129/2/4 130/2/4 133/2/4
f 133/2/4 130/2/4 134/2/4
f 127/1/4 131/1/4 135/1/4
f 135/1/4 136/1/4 139/1/4
f 127/1/4 135/1/4 139/1/4
f 139/1/4 136/1/4 140/1/4
f 137/2/4 138/2/4 141/2/4
f 141/2/4 138/2/4 142/2/4
f 127/1/4 139/1/4 143/1/4
f 143/1/4 144/1/4 145/1/4
f 127/1/4 143/1/4 145/1/4
f 145/1/4 144/1/4 146/1/4
f 149/2/5 148/2/5 147/2/5
f 150/2/5 148/2/5 149/2/5
f 151/2/5 148/2/5 150/2/5
f 152/2/5 148/2/5 151/2/5
f 153/2/5 148/2/5 152/2/5
f 154/2/5 148/2/5 153/2/5
f 155/2/5 151/2/5 150/2/5
f 156/2/5 151/2/5 155/2/5
f 157/2/5 153/2/5 152/2/5
f 158/2/5 153/2/5 157/2/5
f 163/1/5 160/1/5 159/1/5
f 164/1/5 160/1/5 163/1/5
f 165/1/5 162/1/5 161/1/5
f 166/1/5 162/1/5 165/1/5
f 173/1/5 168/1/5 167/1/5
f 174/1/5 168/1/5 173/1/5
f 175/1/5 170/1/5 169/1/5
f 176/1/5 170/1/5 175/1/5
f 177/1/5 172/1/5 171/1/5
f 178/1/5 172/1/5 177/1/5
f 181/1/5 180/1/5 179/1/5
f 182/1/5 180/1/5 181/1/5
f 183/2/6 184/2/6 185/2/6
f 185/2/6 184/2/6 186/2/6
f 186/2/6 184/2/6 187/2/6
f 187/2/6 184/2/6 188/2/6
f 188/2/6 184/2/6 189/2/6
f 189/2/6 184/2/6 190/2/6
f 186/2/6 187/2/6 191/2/6
f 191/2/6 187/2/6 192/2/6
f 188/2/6 189/2/6 193/2/6
f 193/2/6 189/2/6 194/2/6
f 195/2/6 196/2/6 197/2/6
f 197/2/6 196/2/6 198/2/6
f 199/1/6 200/1/6 203/1/6
f 203/1/6 200/1/6 204/1/6
f 201/1/6 202/1/6 205/1/6
f 205/1/6 202/1/6 206/1/6
f 207/1/6 208/1/6 213/1/6
f 213/1/6 208/1/6 214/1/6
f 209/1/6 210/1/6 215/1/6
f 215/1/6 210/1/6 216/1/6
f 211/1/6 212/1/6 217/1/6
f 217/1/6 212/1/6 218/1/6
